<svg width="320" height="432" viewBox="0 0 320 432" fill="none" xmlns="http://www.w3.org/2000/svg">
<path d="M222.972 89.9374C224.593 92.1743 226.123 94.5281 227.55 96.9999L308.957 238C331.519 277.078 315.93 323.497 281.305 344.153C273.747 348.662 269.915 358.379 274.315 366V366C291.251 395.333 270.082 432 236.211 432H83.7896C49.9185 432 28.7496 395.333 45.6852 366V366C50.0846 358.379 46.2521 348.662 38.695 344.153C4.07031 323.497 -11.5183 277.078 11.0436 238L39.9303 187.966C39.9858 187.87 39.9164 187.75 39.8053 187.75V187.75C39.6942 187.75 39.6247 187.63 39.6803 187.533L142.179 9.99991C149.877 -3.33342 169.122 -3.33342 176.82 9.99989L222.972 89.9374Z" fill="black"/>
</svg>
